<?xml version="1.0" standalone="no"?>
<!DOCTYPE svg PUBLIC "-//W3C//DTD SVG 20010904//EN"
 "http://www.w3.org/TR/2001/REC-SVG-20010904/DTD/svg10.dtd">
<svg version="1.0" xmlns="http://www.w3.org/2000/svg"
 width="590.000000pt" height="590.000000pt" viewBox="0 0 590.000000 590.000000"
 preserveAspectRatio="xMidYMid meet">

<g transform="translate(0.000000,590.000000) scale(0.100000,-0.100000)"
fill="#000000" stroke="none">
<path d="M1550 5494 c-420 -112 -710 -784 -799 -1849 -29 -342 -35 -1006 -12
-1320 42 -582 117 -990 246 -1330 174 -460 420 -705 726 -723 449 -26 1208
285 2063 845 255 167 413 282 745 538 213 165 480 394 634 544 273 267 412
484 424 661 18 253 -206 543 -757 982 -858 683 -2127 1409 -2801 1603 -216 63
-362 78 -469 49z m284 -484 c279 -95 569 -560 720 -1150 32 -127 81 -397 88
-484 l3 -39 -240 -3 c-369 -4 -711 -31 -1010 -79 -82 -13 -151 -22 -154 -20
-6 7 18 418 35 595 50 519 146 902 271 1073 47 64 67 83 118 107 51 25 98 25
169 0z m661 -223 c324 -132 688 -302 900 -419 44 -25 116 -64 160 -88 530
-285 1138 -729 1539 -1123 88 -87 107 -111 126 -162 29 -80 24 -171 -14 -249
-48 -97 -418 -431 -757 -683 -183 -136 -500 -344 -714 -470 -256 -150 -632
-349 -642 -340 -3 3 4 66 16 139 52 330 74 618 74 968 -1 256 -18 554 -39 656
l-6 31 54 6 c267 32 884 33 1183 2 180 -18 204 -18 145 2 -217 70 -819 185
-1170 223 -282 31 -258 25 -266 68 -14 81 -58 244 -103 382 -70 210 -146 381
-266 595 -66 119 -226 336 -323 440 -26 28 -56 61 -66 73 l-19 22 39 -14 c21
-8 89 -34 149 -59z m172 -1999 c-8 -235 -26 -423 -62 -626 -127 -726 -432
-1293 -753 -1401 -81 -28 -127 -26 -191 5 -65 33 -114 96 -175 224 -124 264
-202 713 -237 1373 -10 186 -10 220 2 228 24 15 166 69 334 126 295 100 526
161 945 247 63 13 121 24 129 25 12 1 13 -31 8 -201z"/>
</g>
</svg>
